<svg width="473" height="243" viewBox="0 0 473 243" fill="none" xmlns="http://www.w3.org/2000/svg">
<rect y="0.214478" width="473" height="242" rx="20" fill="#0C0F11"/>
<path d="M47.9656 55.619L44.7536 49.789H43.8516V55.619H40.0896V40.175H46.4036C47.6209 40.175 48.6549 40.3877 49.5056 40.813C50.3709 41.2384 51.0163 41.825 51.4416 42.573C51.8669 43.3064 52.0796 44.1277 52.0796 45.037C52.0796 46.0637 51.7863 46.9804 51.1996 47.787C50.6276 48.5937 49.7769 49.1657 48.6476 49.503L52.2116 55.619H47.9656ZM43.8516 47.127H46.1836C46.8729 47.127 47.3863 46.9584 47.7236 46.621C48.0756 46.2837 48.2516 45.807 48.2516 45.191C48.2516 44.5897 48.0756 44.1204 47.7236 43.783C47.3863 43.431 46.8729 43.255 46.1836 43.255H43.8516V47.127ZM66.0131 49.261C66.0131 49.5984 65.9911 49.9577 65.9471 50.339H57.4331C57.4918 51.1164 57.7338 51.7104 58.1591 52.121C58.5845 52.5317 59.1198 52.737 59.7651 52.737C60.7038 52.737 61.3565 52.341 61.7231 51.549H65.7271C65.5218 52.3557 65.1478 53.0817 64.6051 53.727C64.0771 54.3724 63.4098 54.8784 62.6031 55.245C61.7965 55.6117 60.8945 55.795 59.8971 55.795C58.6945 55.795 57.6238 55.5384 56.6851 55.025C55.7465 54.5117 55.0131 53.7784 54.4851 52.825C53.9571 51.8717 53.6931 50.757 53.6931 49.481C53.6931 48.205 53.9498 47.0904 54.4631 46.137C54.9911 45.1837 55.7245 44.4504 56.6631 43.937C57.6018 43.4237 58.6798 43.167 59.8971 43.167C61.0851 43.167 62.1411 43.4164 63.0651 43.915C63.9891 44.4137 64.7078 45.125 65.2211 46.049C65.7491 46.973 66.0131 48.0437 66.0131 49.261ZM62.1631 48.425C62.1631 47.721 61.9431 47.171 61.5031 46.775C61.0631 46.379 60.5131 46.181 59.8531 46.181C59.2078 46.181 58.6651 46.379 58.2251 46.775C57.7998 47.1564 57.5358 47.7064 57.4331 48.425H62.1631ZM71.7598 45.081C72.1265 44.509 72.6325 44.047 73.2778 43.695C73.9231 43.343 74.6785 43.167 75.5438 43.167C76.5558 43.167 77.4725 43.4237 78.2938 43.937C79.1151 44.4504 79.7605 45.1837 80.2298 46.137C80.7138 47.0904 80.9558 48.1977 80.9558 49.459C80.9558 50.7204 80.7138 51.835 80.2298 52.803C79.7605 53.7564 79.1151 54.497 78.2938 55.025C77.4725 55.5384 76.5558 55.795 75.5438 55.795C74.6931 55.795 73.9378 55.619 73.2778 55.267C72.6325 54.915 72.1265 54.4604 71.7598 53.903V61.471H67.9978V43.343H71.7598V45.081ZM77.1278 49.459C77.1278 48.5204 76.8638 47.787 76.3358 47.259C75.8225 46.7164 75.1845 46.445 74.4218 46.445C73.6738 46.445 73.0358 46.7164 72.5078 47.259C71.9945 47.8017 71.7378 48.5424 71.7378 49.481C71.7378 50.4197 71.9945 51.1604 72.5078 51.703C73.0358 52.2457 73.6738 52.517 74.4218 52.517C75.1698 52.517 75.8078 52.2457 76.3358 51.703C76.8638 51.1457 77.1278 50.3977 77.1278 49.459ZM88.5174 55.795C87.3148 55.795 86.2294 55.5384 85.2614 55.025C84.3081 54.5117 83.5528 53.7784 82.9954 52.825C82.4528 51.8717 82.1814 50.757 82.1814 49.481C82.1814 48.2197 82.4601 47.1124 83.0174 46.159C83.5748 45.191 84.3374 44.4504 85.3054 43.937C86.2734 43.4237 87.3588 43.167 88.5614 43.167C89.7641 43.167 90.8494 43.4237 91.8174 43.937C92.7854 44.4504 93.5481 45.191 94.1054 46.159C94.6628 47.1124 94.9414 48.2197 94.9414 49.481C94.9414 50.7424 94.6554 51.857 94.0834 52.825C93.5261 53.7784 92.7561 54.5117 91.7734 55.025C90.8054 55.5384 89.7201 55.795 88.5174 55.795ZM88.5174 52.561C89.2361 52.561 89.8448 52.297 90.3434 51.769C90.8568 51.2264 91.1134 50.4637 91.1134 49.481C91.1134 48.4984 90.8641 47.743 90.3654 47.215C89.8814 46.6724 89.2801 46.401 88.5614 46.401C87.8281 46.401 87.2194 46.665 86.7354 47.193C86.2514 47.721 86.0094 48.4837 86.0094 49.481C86.0094 50.4637 86.2441 51.2264 86.7134 51.769C87.1974 52.297 87.7988 52.561 88.5174 52.561ZM109.509 43.211C110.946 43.211 112.09 43.6804 112.941 44.619C113.806 45.543 114.239 46.819 114.239 48.447V55.619H110.499V48.953C110.499 48.1317 110.286 47.4937 109.861 47.039C109.436 46.5844 108.864 46.357 108.145 46.357C107.426 46.357 106.854 46.5844 106.429 47.039C106.004 47.4937 105.791 48.1317 105.791 48.953V55.619H102.029V43.343H105.791V44.971C106.172 44.4284 106.686 44.003 107.331 43.695C107.976 43.3724 108.702 43.211 109.509 43.211ZM116.105 49.459C116.105 48.1977 116.34 47.0904 116.809 46.137C117.293 45.1837 117.946 44.4504 118.767 43.937C119.589 43.4237 120.505 43.167 121.517 43.167C122.383 43.167 123.138 43.343 123.783 43.695C124.443 44.047 124.949 44.509 125.301 45.081V43.343H129.063V55.619H125.301V53.881C124.935 54.453 124.421 54.915 123.761 55.267C123.116 55.619 122.361 55.795 121.495 55.795C120.498 55.795 119.589 55.5384 118.767 55.025C117.946 54.497 117.293 53.7564 116.809 52.803C116.34 51.835 116.105 50.7204 116.105 49.459ZM125.301 49.481C125.301 48.5424 125.037 47.8017 124.509 47.259C123.996 46.7164 123.365 46.445 122.617 46.445C121.869 46.445 121.231 46.7164 120.703 47.259C120.19 47.787 119.933 48.5204 119.933 49.459C119.933 50.3977 120.19 51.1457 120.703 51.703C121.231 52.2457 121.869 52.517 122.617 52.517C123.365 52.517 123.996 52.2457 124.509 51.703C125.037 51.1604 125.301 50.4197 125.301 49.481ZM147.449 43.211C148.974 43.211 150.184 43.673 151.079 44.597C151.988 45.521 152.443 46.8044 152.443 48.447V55.619H148.703V48.953C148.703 48.161 148.49 47.5524 148.065 47.127C147.654 46.687 147.082 46.467 146.349 46.467C145.616 46.467 145.036 46.687 144.611 47.127C144.2 47.5524 143.995 48.161 143.995 48.953V55.619H140.255V48.953C140.255 48.161 140.042 47.5524 139.617 47.127C139.206 46.687 138.634 46.467 137.901 46.467C137.168 46.467 136.588 46.687 136.163 47.127C135.752 47.5524 135.547 48.161 135.547 48.953V55.619H131.785V43.343H135.547V44.883C135.928 44.3697 136.427 43.9664 137.043 43.673C137.659 43.365 138.356 43.211 139.133 43.211C140.057 43.211 140.878 43.409 141.597 43.805C142.33 44.201 142.902 44.7657 143.313 45.499C143.738 44.8244 144.318 44.2744 145.051 43.849C145.784 43.4237 146.584 43.211 147.449 43.211ZM166.646 49.261C166.646 49.5984 166.624 49.9577 166.58 50.339H158.066C158.125 51.1164 158.367 51.7104 158.792 52.121C159.217 52.5317 159.753 52.737 160.398 52.737C161.337 52.737 161.989 52.341 162.356 51.549H166.36C166.155 52.3557 165.781 53.0817 165.238 53.727C164.71 54.3724 164.043 54.8784 163.236 55.245C162.429 55.6117 161.527 55.795 160.53 55.795C159.327 55.795 158.257 55.5384 157.318 55.025C156.379 54.5117 155.646 53.7784 155.118 52.825C154.59 51.8717 154.326 50.757 154.326 49.481C154.326 48.205 154.583 47.0904 155.096 46.137C155.624 45.1837 156.357 44.4504 157.296 43.937C158.235 43.4237 159.313 43.167 160.53 43.167C161.718 43.167 162.774 43.4164 163.698 43.915C164.622 44.4137 165.341 45.125 165.854 46.049C166.382 46.973 166.646 48.0437 166.646 49.261ZM162.796 48.425C162.796 47.721 162.576 47.171 162.136 46.775C161.696 46.379 161.146 46.181 160.486 46.181C159.841 46.181 159.298 46.379 158.858 46.775C158.433 47.1564 158.169 47.7064 158.066 48.425H162.796Z" fill="white"/>
<path d="M42.9196 79.997C43.2196 79.529 43.6336 79.151 44.1616 78.863C44.6896 78.575 45.3076 78.431 46.0156 78.431C46.8436 78.431 47.5936 78.641 48.2656 79.061C48.9376 79.481 49.4656 80.081 49.8496 80.861C50.2456 81.641 50.4436 82.547 50.4436 83.579C50.4436 84.611 50.2456 85.523 49.8496 86.315C49.4656 87.095 48.9376 87.701 48.2656 88.133C47.5936 88.553 46.8436 88.763 46.0156 88.763C45.3196 88.763 44.7016 88.619 44.1616 88.331C43.6336 88.043 43.2196 87.671 42.9196 87.215V93.407H39.8416V78.575H42.9196V79.997ZM47.3116 83.579C47.3116 82.811 47.0956 82.211 46.6636 81.779C46.2436 81.335 45.7216 81.113 45.0976 81.113C44.4856 81.113 43.9636 81.335 43.5316 81.779C43.1116 82.223 42.9016 82.829 42.9016 83.597C42.9016 84.365 43.1116 84.971 43.5316 85.415C43.9636 85.859 44.4856 86.081 45.0976 86.081C45.7096 86.081 46.2316 85.859 46.6636 85.415C47.0956 84.959 47.3116 84.347 47.3116 83.579ZM55.1364 80.375C55.4964 79.787 55.9464 79.325 56.4864 78.989C57.0384 78.641 57.6384 78.467 58.2864 78.467V81.725H57.4404C56.6724 81.725 56.0964 81.893 55.7124 82.229C55.3284 82.553 55.1364 83.129 55.1364 83.957V88.619H52.0584V78.575H55.1364V80.375ZM64.3296 88.763C63.3456 88.763 62.4576 88.553 61.6656 88.133C60.8856 87.713 60.2676 87.113 59.8116 86.333C59.3676 85.553 59.1456 84.641 59.1456 83.597C59.1456 82.565 59.3736 81.659 59.8296 80.879C60.2856 80.087 60.9096 79.481 61.7016 79.061C62.4936 78.641 63.3816 78.431 64.3656 78.431C65.3496 78.431 66.2376 78.641 67.0296 79.061C67.8216 79.481 68.4456 80.087 68.9016 80.879C69.3576 81.659 69.5856 82.565 69.5856 83.597C69.5856 84.629 69.3516 85.541 68.8836 86.333C68.4276 87.113 67.7976 87.713 66.9936 88.133C66.2016 88.553 65.3136 88.763 64.3296 88.763ZM64.3296 86.117C64.9176 86.117 65.4156 85.901 65.8236 85.469C66.2436 85.025 66.4536 84.401 66.4536 83.597C66.4536 82.793 66.2496 82.175 65.8416 81.743C65.4456 81.299 64.9536 81.077 64.3656 81.077C63.7656 81.077 63.2676 81.293 62.8716 81.725C62.4756 82.157 62.2776 82.781 62.2776 83.597C62.2776 84.401 62.4696 85.025 62.8536 85.469C63.2496 85.901 63.7416 86.117 64.3296 86.117ZM75.0345 78.431C75.7425 78.431 76.3605 78.575 76.8885 78.863C77.4285 79.151 77.8425 79.529 78.1305 79.997V78.575H81.2085V88.601C81.2085 89.525 81.0225 90.359 80.6505 91.103C80.2905 91.859 79.7325 92.459 78.9765 92.903C78.2325 93.347 77.3025 93.569 76.1865 93.569C74.6985 93.569 73.4925 93.215 72.5685 92.507C71.6445 91.811 71.1165 90.863 70.9845 89.663H74.0265C74.1225 90.047 74.3505 90.347 74.7105 90.563C75.0705 90.791 75.5145 90.905 76.0425 90.905C76.6785 90.905 77.1825 90.719 77.5545 90.347C77.9385 89.987 78.1305 89.405 78.1305 88.601V87.179C77.8305 87.647 77.4165 88.031 76.8885 88.331C76.3605 88.619 75.7425 88.763 75.0345 88.763C74.2065 88.763 73.4565 88.553 72.7845 88.133C72.1125 87.701 71.5785 87.095 71.1825 86.315C70.7985 85.523 70.6065 84.611 70.6065 83.579C70.6065 82.547 70.7985 81.641 71.1825 80.861C71.5785 80.081 72.1125 79.481 72.7845 79.061C73.4565 78.641 74.2065 78.431 75.0345 78.431ZM78.1305 83.597C78.1305 82.829 77.9145 82.223 77.4825 81.779C77.0625 81.335 76.5465 81.113 75.9345 81.113C75.3225 81.113 74.8005 81.335 74.3685 81.779C73.9485 82.211 73.7385 82.811 73.7385 83.579C73.7385 84.347 73.9485 84.959 74.3685 85.415C74.8005 85.859 75.3225 86.081 75.9345 86.081C76.5465 86.081 77.0625 85.859 77.4825 85.415C77.9145 84.971 78.1305 84.365 78.1305 83.597ZM86.5133 80.375C86.8733 79.787 87.3233 79.325 87.8633 78.989C88.4153 78.641 89.0153 78.467 89.6633 78.467V81.725H88.8173C88.0493 81.725 87.4733 81.893 87.0893 82.229C86.7053 82.553 86.5133 83.129 86.5133 83.957V88.619H83.4353V78.575H86.5133V80.375ZM90.5226 83.579C90.5226 82.547 90.7146 81.641 91.0986 80.861C91.4946 80.081 92.0286 79.481 92.7006 79.061C93.3726 78.641 94.1226 78.431 94.9506 78.431C95.6586 78.431 96.2766 78.575 96.8046 78.863C97.3446 79.151 97.7586 79.529 98.0466 79.997V78.575H101.125V88.619H98.0466V87.197C97.7466 87.665 97.3266 88.043 96.7866 88.331C96.2586 88.619 95.6406 88.763 94.9326 88.763C94.1166 88.763 93.3726 88.553 92.7006 88.133C92.0286 87.701 91.4946 87.095 91.0986 86.315C90.7146 85.523 90.5226 84.611 90.5226 83.579ZM98.0466 83.597C98.0466 82.829 97.8306 82.223 97.3986 81.779C96.9786 81.335 96.4626 81.113 95.8506 81.113C95.2386 81.113 94.7166 81.335 94.2846 81.779C93.8646 82.211 93.6546 82.811 93.6546 83.579C93.6546 84.347 93.8646 84.959 94.2846 85.415C94.7166 85.859 95.2386 86.081 95.8506 86.081C96.4626 86.081 96.9786 85.859 97.3986 85.415C97.8306 84.971 98.0466 84.365 98.0466 83.597ZM116.167 78.467C117.415 78.467 118.405 78.845 119.137 79.601C119.881 80.357 120.253 81.407 120.253 82.751V88.619H117.193V83.165C117.193 82.517 117.019 82.019 116.671 81.671C116.335 81.311 115.867 81.131 115.267 81.131C114.667 81.131 114.193 81.311 113.845 81.671C113.509 82.019 113.341 82.517 113.341 83.165V88.619H110.281V83.165C110.281 82.517 110.107 82.019 109.759 81.671C109.423 81.311 108.955 81.131 108.355 81.131C107.755 81.131 107.281 81.311 106.933 81.671C106.597 82.019 106.429 82.517 106.429 83.165V88.619H103.351V78.575H106.429V79.835C106.741 79.415 107.149 79.085 107.653 78.845C108.157 78.593 108.727 78.467 109.363 78.467C110.119 78.467 110.791 78.629 111.379 78.953C111.979 79.277 112.447 79.739 112.783 80.339C113.131 79.787 113.605 79.337 114.205 78.989C114.805 78.641 115.459 78.467 116.167 78.467ZM135.222 78.467C136.47 78.467 137.46 78.845 138.192 79.601C138.936 80.357 139.308 81.407 139.308 82.751V88.619H136.248V83.165C136.248 82.517 136.074 82.019 135.726 81.671C135.39 81.311 134.922 81.131 134.322 81.131C133.722 81.131 133.248 81.311 132.9 81.671C132.564 82.019 132.396 82.517 132.396 83.165V88.619H129.336V83.165C129.336 82.517 129.162 82.019 128.814 81.671C128.478 81.311 128.01 81.131 127.41 81.131C126.81 81.131 126.336 81.311 125.988 81.671C125.652 82.019 125.484 82.517 125.484 83.165V88.619H122.406V78.575H125.484V79.835C125.796 79.415 126.204 79.085 126.708 78.845C127.212 78.593 127.782 78.467 128.418 78.467C129.174 78.467 129.846 78.629 130.434 78.953C131.034 79.277 131.502 79.739 131.838 80.339C132.186 79.787 132.66 79.337 133.26 78.989C133.86 78.641 134.514 78.467 135.222 78.467ZM143.009 77.531C142.469 77.531 142.025 77.375 141.677 77.063C141.341 76.739 141.173 76.343 141.173 75.875C141.173 75.395 141.341 74.999 141.677 74.687C142.025 74.363 142.469 74.201 143.009 74.201C143.537 74.201 143.969 74.363 144.305 74.687C144.653 74.999 144.827 75.395 144.827 75.875C144.827 76.343 144.653 76.739 144.305 77.063C143.969 77.375 143.537 77.531 143.009 77.531ZM144.539 78.575V88.619H141.461V78.575H144.539ZM152.889 78.467C154.065 78.467 155.001 78.851 155.697 79.619C156.405 80.375 156.759 81.419 156.759 82.751V88.619H153.699V83.165C153.699 82.493 153.525 81.971 153.177 81.599C152.829 81.227 152.361 81.041 151.773 81.041C151.185 81.041 150.717 81.227 150.369 81.599C150.021 81.971 149.847 82.493 149.847 83.165V88.619H146.769V78.575H149.847V79.907C150.159 79.463 150.579 79.115 151.107 78.863C151.635 78.599 152.229 78.467 152.889 78.467ZM162.714 78.431C163.422 78.431 164.04 78.575 164.568 78.863C165.108 79.151 165.522 79.529 165.81 79.997V78.575H168.888V88.601C168.888 89.525 168.702 90.359 168.33 91.103C167.97 91.859 167.412 92.459 166.656 92.903C165.912 93.347 164.982 93.569 163.866 93.569C162.378 93.569 161.172 93.215 160.248 92.507C159.324 91.811 158.796 90.863 158.664 89.663H161.706C161.802 90.047 162.03 90.347 162.39 90.563C162.75 90.791 163.194 90.905 163.722 90.905C164.358 90.905 164.862 90.719 165.234 90.347C165.618 89.987 165.81 89.405 165.81 88.601V87.179C165.51 87.647 165.096 88.031 164.568 88.331C164.04 88.619 163.422 88.763 162.714 88.763C161.886 88.763 161.136 88.553 160.464 88.133C159.792 87.701 159.258 87.095 158.862 86.315C158.478 85.523 158.286 84.611 158.286 83.579C158.286 82.547 158.478 81.641 158.862 80.861C159.258 80.081 159.792 79.481 160.464 79.061C161.136 78.641 161.886 78.431 162.714 78.431ZM165.81 83.597C165.81 82.829 165.594 82.223 165.162 81.779C164.742 81.335 164.226 81.113 163.614 81.113C163.002 81.113 162.48 81.335 162.048 81.779C161.628 82.211 161.418 82.811 161.418 83.579C161.418 84.347 161.628 84.959 162.048 85.415C162.48 85.859 163.002 86.081 163.614 86.081C164.226 86.081 164.742 85.859 165.162 85.415C165.594 84.971 165.81 84.365 165.81 83.597ZM178.359 75.299V88.619H175.281V75.299H178.359ZM179.978 83.579C179.978 82.547 180.17 81.641 180.554 80.861C180.95 80.081 181.484 79.481 182.156 79.061C182.828 78.641 183.578 78.431 184.406 78.431C185.114 78.431 185.732 78.575 186.26 78.863C186.8 79.151 187.214 79.529 187.502 79.997V78.575H190.58V88.619H187.502V87.197C187.202 87.665 186.782 88.043 186.242 88.331C185.714 88.619 185.096 88.763 184.388 88.763C183.572 88.763 182.828 88.553 182.156 88.133C181.484 87.701 180.95 87.095 180.554 86.315C180.17 85.523 179.978 84.611 179.978 83.579ZM187.502 83.597C187.502 82.829 187.286 82.223 186.854 81.779C186.434 81.335 185.918 81.113 185.306 81.113C184.694 81.113 184.172 81.335 183.74 81.779C183.32 82.211 183.11 82.811 183.11 83.579C183.11 84.347 183.32 84.959 183.74 85.415C184.172 85.859 184.694 86.081 185.306 86.081C185.918 86.081 186.434 85.859 186.854 85.415C187.286 84.971 187.502 84.365 187.502 83.597ZM198.926 78.467C200.102 78.467 201.038 78.851 201.734 79.619C202.442 80.375 202.796 81.419 202.796 82.751V88.619H199.736V83.165C199.736 82.493 199.562 81.971 199.214 81.599C198.866 81.227 198.398 81.041 197.81 81.041C197.222 81.041 196.754 81.227 196.406 81.599C196.058 81.971 195.884 82.493 195.884 83.165V88.619H192.806V78.575H195.884V79.907C196.196 79.463 196.616 79.115 197.144 78.863C197.672 78.599 198.266 78.467 198.926 78.467ZM208.751 78.431C209.459 78.431 210.077 78.575 210.605 78.863C211.145 79.151 211.559 79.529 211.847 79.997V78.575H214.925V88.601C214.925 89.525 214.739 90.359 214.367 91.103C214.007 91.859 213.449 92.459 212.693 92.903C211.949 93.347 211.019 93.569 209.903 93.569C208.415 93.569 207.209 93.215 206.285 92.507C205.361 91.811 204.833 90.863 204.701 89.663H207.743C207.839 90.047 208.067 90.347 208.427 90.563C208.787 90.791 209.231 90.905 209.759 90.905C210.395 90.905 210.899 90.719 211.271 90.347C211.655 89.987 211.847 89.405 211.847 88.601V87.179C211.547 87.647 211.133 88.031 210.605 88.331C210.077 88.619 209.459 88.763 208.751 88.763C207.923 88.763 207.173 88.553 206.501 88.133C205.829 87.701 205.295 87.095 204.899 86.315C204.515 85.523 204.323 84.611 204.323 83.579C204.323 82.547 204.515 81.641 204.899 80.861C205.295 80.081 205.829 79.481 206.501 79.061C207.173 78.641 207.923 78.431 208.751 78.431ZM211.847 83.597C211.847 82.829 211.631 82.223 211.199 81.779C210.779 81.335 210.263 81.113 209.651 81.113C209.039 81.113 208.517 81.335 208.085 81.779C207.665 82.211 207.455 82.811 207.455 83.579C207.455 84.347 207.665 84.959 208.085 85.415C208.517 85.859 209.039 86.081 209.651 86.081C210.263 86.081 210.779 85.859 211.199 85.415C211.631 84.971 211.847 84.365 211.847 83.597Z" fill="#DAD5D5"/>
<g clip-path="url(#clip0_2451_724)">
<path d="M95.1998 143.382H56.0136C46.4657 143.382 38.7256 151.136 38.7256 160.701V199.957C38.7256 209.522 46.4657 217.275 56.0136 217.275H95.1998C104.748 217.275 112.488 209.522 112.488 199.957V160.701C112.488 151.136 104.748 143.382 95.1998 143.382Z" fill="white"/>
<path d="M75.6066 152.042C59.6953 152.042 46.793 164.964 46.793 180.906C46.793 193.66 55.0489 204.479 66.4976 208.296C67.9374 208.563 68.4661 207.67 68.4661 206.908C68.4661 206.219 68.4393 203.945 68.4269 201.534C60.411 203.28 58.7197 198.128 58.7197 198.128C57.4087 194.791 55.5202 193.904 55.5202 193.904C52.906 192.113 55.7173 192.15 55.7173 192.15C58.6108 192.353 60.1344 195.124 60.1344 195.124C62.7043 199.537 66.875 198.261 68.5191 197.524C68.7778 195.658 69.5244 194.385 70.3485 193.664C63.9487 192.934 57.2211 190.459 57.2211 179.399C57.2211 176.247 58.3465 173.672 60.1897 171.651C59.8904 170.924 58.9041 167.988 60.4686 164.012C60.4686 164.012 62.8884 163.237 68.3946 166.971C70.6931 166.332 73.1578 166.011 75.6066 166C78.0552 166.011 80.5222 166.332 82.8246 166.971C88.3242 163.236 90.7405 164.013 90.7405 164.013C92.3088 167.988 91.3223 170.924 91.0229 171.651C92.8704 173.672 93.9884 176.247 93.9884 179.399C93.9884 190.485 87.2478 192.926 80.8316 193.641C81.8652 194.537 82.786 196.293 82.786 198.986C82.786 202.848 82.7526 205.957 82.7526 206.908C82.7526 207.676 83.2713 208.576 84.7318 208.292C96.1742 204.471 104.42 193.655 104.42 180.906C104.42 164.965 91.5191 152.042 75.6066 152.042ZM57.5847 193.16C57.5213 193.303 57.296 193.346 57.0909 193.248C56.8817 193.154 56.7644 192.958 56.8321 192.814C56.8941 192.667 57.12 192.626 57.3283 192.725C57.5378 192.819 57.657 193.016 57.5847 193.16ZM59.0021 194.427C58.8646 194.555 58.5958 194.495 58.4137 194.293C58.2252 194.092 58.1898 193.823 58.3293 193.694C58.4707 193.566 58.7315 193.626 58.9202 193.827C59.1087 194.031 59.1455 194.298 59.0021 194.427ZM59.9742 196.048C59.7976 196.171 59.5089 196.056 59.3305 195.799C59.1539 195.542 59.1539 195.234 59.3343 195.111C59.5132 194.988 59.7976 195.099 59.9785 195.353C60.1546 195.614 60.1546 195.922 59.9742 196.048ZM61.6186 197.925C61.4607 198.1 61.1244 198.053 60.8781 197.815C60.6263 197.582 60.556 197.252 60.7144 197.077C60.8743 196.902 61.2126 196.952 61.4607 197.188C61.7108 197.42 61.7872 197.753 61.6186 197.925ZM63.7439 198.559C63.6741 198.785 63.3503 198.888 63.0238 198.792C62.6982 198.693 62.4847 198.428 62.5507 198.199C62.6184 197.972 62.9437 197.865 63.2725 197.968C63.5981 198.066 63.8116 198.329 63.7439 198.559ZM66.1625 198.828C66.1705 199.066 65.8939 199.263 65.5513 199.267C65.2067 199.275 64.9281 199.082 64.9243 198.848C64.9243 198.608 65.1949 198.412 65.5392 198.407C65.8821 198.4 66.1625 198.591 66.1625 198.828ZM68.5384 198.737C68.5796 198.969 68.3416 199.207 68.0013 199.271C67.6668 199.332 67.3571 199.189 67.3147 198.958C67.2732 198.72 67.5155 198.482 67.8495 198.42C68.1903 198.361 68.4952 198.5 68.5384 198.737Z" fill="#0C0F11"/>
</g>
<rect x="348.526" y="169.245" width="94.0468" height="19.3969" rx="9.69847" fill="white"/>
<path d="M375.812 176.737C376.045 176.373 376.367 176.079 376.778 175.855C377.188 175.631 377.669 175.519 378.22 175.519C378.864 175.519 379.447 175.683 379.97 176.009C380.492 176.336 380.903 176.803 381.202 177.409C381.51 178.016 381.664 178.721 381.664 179.523C381.664 180.326 381.51 181.035 381.202 181.651C380.903 182.258 380.492 182.729 379.97 183.065C379.447 183.392 378.864 183.555 378.22 183.555C377.678 183.555 377.198 183.443 376.778 183.219C376.367 182.995 376.045 182.706 375.812 182.351V187.167H373.418V175.631H375.812V176.737ZM379.228 179.523C379.228 178.926 379.06 178.459 378.724 178.123C378.397 177.778 377.991 177.605 377.506 177.605C377.03 177.605 376.624 177.778 376.288 178.123C375.961 178.469 375.798 178.94 375.798 179.537C375.798 180.135 375.961 180.606 376.288 180.951C376.624 181.297 377.03 181.469 377.506 181.469C377.982 181.469 378.388 181.297 378.724 180.951C379.06 180.597 379.228 180.121 379.228 179.523ZM390.634 175.631V183.443H388.24V182.379C387.997 182.725 387.666 183.005 387.246 183.219C386.835 183.425 386.378 183.527 385.874 183.527C385.276 183.527 384.749 183.397 384.292 183.135C383.834 182.865 383.48 182.477 383.228 181.973C382.976 181.469 382.85 180.877 382.85 180.195V175.631H385.23V179.873C385.23 180.396 385.365 180.802 385.636 181.091C385.906 181.381 386.27 181.525 386.728 181.525C387.194 181.525 387.563 181.381 387.834 181.091C388.104 180.802 388.24 180.396 388.24 179.873V175.631H390.634ZM394.747 176.737C394.971 176.373 395.293 176.079 395.713 175.855C396.133 175.631 396.614 175.519 397.155 175.519C397.799 175.519 398.383 175.683 398.905 176.009C399.428 176.336 399.839 176.803 400.137 177.409C400.445 178.016 400.599 178.721 400.599 179.523C400.599 180.326 400.445 181.035 400.137 181.651C399.839 182.258 399.428 182.729 398.905 183.065C398.383 183.392 397.799 183.555 397.155 183.555C396.605 183.555 396.124 183.448 395.713 183.233C395.303 183.009 394.981 182.715 394.747 182.351V183.443H392.353V173.083H394.747V176.737ZM398.163 179.523C398.163 178.926 397.995 178.459 397.659 178.123C397.333 177.778 396.927 177.605 396.441 177.605C395.965 177.605 395.559 177.778 395.223 178.123C394.897 178.469 394.733 178.94 394.733 179.537C394.733 180.135 394.897 180.606 395.223 180.951C395.559 181.297 395.965 181.469 396.441 181.469C396.917 181.469 397.323 181.297 397.659 180.951C397.995 180.597 398.163 180.121 398.163 179.523ZM404.249 173.083V183.443H401.855V173.083H404.249ZM407.188 174.819C406.768 174.819 406.423 174.698 406.152 174.455C405.891 174.203 405.76 173.895 405.76 173.531C405.76 173.158 405.891 172.85 406.152 172.607C406.423 172.355 406.768 172.229 407.188 172.229C407.599 172.229 407.935 172.355 408.196 172.607C408.467 172.85 408.602 173.158 408.602 173.531C408.602 173.895 408.467 174.203 408.196 174.455C407.935 174.698 407.599 174.819 407.188 174.819ZM408.378 175.631V183.443H405.984V175.631H408.378ZM409.637 179.537C409.637 178.725 409.8 178.016 410.127 177.409C410.463 176.803 410.925 176.336 411.513 176.009C412.11 175.683 412.792 175.519 413.557 175.519C414.537 175.519 415.354 175.776 416.007 176.289C416.67 176.803 417.104 177.526 417.309 178.459H414.761C414.546 177.862 414.131 177.563 413.515 177.563C413.076 177.563 412.726 177.736 412.465 178.081C412.204 178.417 412.073 178.903 412.073 179.537C412.073 180.172 412.204 180.662 412.465 181.007C412.726 181.343 413.076 181.511 413.515 181.511C414.131 181.511 414.546 181.213 414.761 180.615H417.309C417.104 181.53 416.67 182.249 416.007 182.771C415.344 183.294 414.528 183.555 413.557 183.555C412.792 183.555 412.11 183.392 411.513 183.065C410.925 182.739 410.463 182.272 410.127 181.665C409.8 181.059 409.637 180.349 409.637 179.537Z" fill="#0C0F11"/>
<path d="M371.733 205.305C371.798 204.446 372.129 203.774 372.727 203.289C373.324 202.803 374.099 202.561 375.051 202.561C375.685 202.561 376.231 202.677 376.689 202.911C377.155 203.135 377.505 203.443 377.739 203.835C377.981 204.227 378.103 204.67 378.103 205.165C378.103 205.743 377.935 206.243 377.599 206.663C377.272 207.083 376.843 207.353 376.311 207.475V207.545C376.917 207.694 377.398 207.988 377.753 208.427C378.107 208.865 378.285 209.439 378.285 210.149C378.285 210.681 378.163 211.161 377.921 211.591C377.678 212.011 377.314 212.342 376.829 212.585C376.343 212.827 375.76 212.949 375.079 212.949C374.089 212.949 373.277 212.692 372.643 212.179C372.008 211.656 371.653 210.919 371.579 209.967H372.811C372.876 210.527 373.105 210.984 373.497 211.339C373.889 211.693 374.411 211.871 375.065 211.871C375.718 211.871 376.213 211.703 376.549 211.367C376.894 211.021 377.067 210.578 377.067 210.037C377.067 209.337 376.833 208.833 376.367 208.525C375.9 208.217 375.195 208.063 374.253 208.063H373.931V206.999H374.267C375.125 206.989 375.774 206.849 376.213 206.579C376.651 206.299 376.871 205.869 376.871 205.291C376.871 204.796 376.707 204.399 376.381 204.101C376.063 203.802 375.606 203.653 375.009 203.653C374.43 203.653 373.963 203.802 373.609 204.101C373.254 204.399 373.044 204.801 372.979 205.305H371.733ZM379.739 209.015C379.739 208.231 379.897 207.545 380.215 206.957C380.532 206.359 380.966 205.897 381.517 205.571C382.077 205.244 382.702 205.081 383.393 205.081C383.99 205.081 384.545 205.221 385.059 205.501C385.572 205.771 385.964 206.131 386.235 206.579V202.519H387.523V212.879H386.235V211.437C385.983 211.894 385.609 212.272 385.115 212.571C384.62 212.86 384.041 213.005 383.379 213.005C382.697 213.005 382.077 212.837 381.517 212.501C380.966 212.165 380.532 211.693 380.215 211.087C379.897 210.48 379.739 209.789 379.739 209.015ZM386.235 209.029C386.235 208.45 386.118 207.946 385.885 207.517C385.651 207.087 385.334 206.761 384.933 206.537C384.541 206.303 384.107 206.187 383.631 206.187C383.155 206.187 382.721 206.299 382.329 206.523C381.937 206.747 381.624 207.073 381.391 207.503C381.157 207.932 381.041 208.436 381.041 209.015C381.041 209.603 381.157 210.116 381.391 210.555C381.624 210.984 381.937 211.315 382.329 211.549C382.721 211.773 383.155 211.885 383.631 211.885C384.107 211.885 384.541 211.773 384.933 211.549C385.334 211.315 385.651 210.984 385.885 210.555C386.118 210.116 386.235 209.607 386.235 209.029ZM392.932 209.015C392.932 208.231 393.091 207.545 393.408 206.957C393.725 206.359 394.159 205.897 394.71 205.571C395.27 205.244 395.891 205.081 396.572 205.081C397.244 205.081 397.827 205.225 398.322 205.515C398.817 205.804 399.185 206.168 399.428 206.607V205.207H400.716V212.879H399.428V211.451C399.176 211.899 398.798 212.272 398.294 212.571C397.799 212.86 397.221 213.005 396.558 213.005C395.877 213.005 395.261 212.837 394.71 212.501C394.159 212.165 393.725 211.693 393.408 211.087C393.091 210.48 392.932 209.789 392.932 209.015ZM399.428 209.029C399.428 208.45 399.311 207.946 399.078 207.517C398.845 207.087 398.527 206.761 398.126 206.537C397.734 206.303 397.3 206.187 396.824 206.187C396.348 206.187 395.914 206.299 395.522 206.523C395.13 206.747 394.817 207.073 394.584 207.503C394.351 207.932 394.234 208.436 394.234 209.015C394.234 209.603 394.351 210.116 394.584 210.555C394.817 210.984 395.13 211.315 395.522 211.549C395.914 211.773 396.348 211.885 396.824 211.885C397.3 211.885 397.734 211.773 398.126 211.549C398.527 211.315 398.845 210.984 399.078 210.555C399.311 210.116 399.428 209.607 399.428 209.029ZM406.033 205.081C406.696 205.081 407.274 205.225 407.769 205.515C408.273 205.804 408.646 206.168 408.889 206.607V205.207H410.177V213.047C410.177 213.747 410.028 214.367 409.729 214.909C409.43 215.459 409.001 215.889 408.441 216.197C407.89 216.505 407.246 216.659 406.509 216.659C405.501 216.659 404.661 216.421 403.989 215.945C403.317 215.469 402.92 214.82 402.799 213.999H404.059C404.199 214.465 404.488 214.839 404.927 215.119C405.366 215.408 405.893 215.553 406.509 215.553C407.209 215.553 407.778 215.333 408.217 214.895C408.665 214.456 408.889 213.84 408.889 213.047V211.437C408.637 211.885 408.264 212.258 407.769 212.557C407.274 212.855 406.696 213.005 406.033 213.005C405.352 213.005 404.731 212.837 404.171 212.501C403.62 212.165 403.186 211.693 402.869 211.087C402.552 210.48 402.393 209.789 402.393 209.015C402.393 208.231 402.552 207.545 402.869 206.957C403.186 206.359 403.62 205.897 404.171 205.571C404.731 205.244 405.352 205.081 406.033 205.081ZM408.889 209.029C408.889 208.45 408.772 207.946 408.539 207.517C408.306 207.087 407.988 206.761 407.587 206.537C407.195 206.303 406.761 206.187 406.285 206.187C405.809 206.187 405.375 206.299 404.983 206.523C404.591 206.747 404.278 207.073 404.045 207.503C403.812 207.932 403.695 208.436 403.695 209.015C403.695 209.603 403.812 210.116 404.045 210.555C404.278 210.984 404.591 211.315 404.983 211.549C405.375 211.773 405.809 211.885 406.285 211.885C406.761 211.885 407.195 211.773 407.587 211.549C407.988 211.315 408.306 210.984 408.539 210.555C408.772 210.116 408.889 209.607 408.889 209.029ZM415.676 213.005C414.957 213.005 414.304 212.841 413.716 212.515C413.137 212.188 412.68 211.726 412.344 211.129C412.017 210.522 411.854 209.822 411.854 209.029C411.854 208.245 412.022 207.554 412.358 206.957C412.703 206.35 413.17 205.888 413.758 205.571C414.346 205.244 415.004 205.081 415.732 205.081C416.46 205.081 417.118 205.244 417.706 205.571C418.294 205.888 418.756 206.345 419.092 206.943C419.437 207.54 419.61 208.235 419.61 209.029C419.61 209.822 419.433 210.522 419.078 211.129C418.733 211.726 418.261 212.188 417.664 212.515C417.067 212.841 416.404 213.005 415.676 213.005ZM415.676 211.885C416.133 211.885 416.563 211.777 416.964 211.563C417.365 211.348 417.687 211.026 417.93 210.597C418.182 210.167 418.308 209.645 418.308 209.029C418.308 208.413 418.187 207.89 417.944 207.461C417.701 207.031 417.384 206.714 416.992 206.509C416.6 206.294 416.175 206.187 415.718 206.187C415.251 206.187 414.822 206.294 414.43 206.509C414.047 206.714 413.739 207.031 413.506 207.461C413.273 207.89 413.156 208.413 413.156 209.029C413.156 209.654 413.268 210.181 413.492 210.611C413.725 211.04 414.033 211.362 414.416 211.577C414.799 211.782 415.219 211.885 415.676 211.885Z" fill="white"/>
<defs>
<clipPath id="clip0_2451_724">
<rect width="73.7622" height="73.8931" fill="white" transform="translate(38.7256 143.382)"/>
</clipPath>
</defs>
</svg>
